<?xml version="1.0" encoding="utf-8" standalone="no"?>
<!DOCTYPE svg PUBLIC "-//W3C//DTD SVG 1.1//EN"
  "http://www.w3.org/Graphics/SVG/1.1/DTD/svg11.dtd">
<svg xmlns:xlink="http://www.w3.org/1999/xlink" width="396.72pt" height="98.64pt" viewBox="0 0 396.72 98.64" xmlns="http://www.w3.org/2000/svg" version="1.1">
 <metadata>
  <rdf:RDF xmlns:dc="http://purl.org/dc/elements/1.1/" xmlns:cc="http://creativecommons.org/ns#" xmlns:rdf="http://www.w3.org/1999/02/22-rdf-syntax-ns#">
   <cc:Work>
    <dc:type rdf:resource="http://purl.org/dc/dcmitype/StillImage"/>
    <dc:date>2024-11-06T11:29:58.461704</dc:date>
    <dc:format>image/svg+xml</dc:format>
    <dc:creator>
     <cc:Agent>
      <dc:title>Matplotlib v3.9.0, https://matplotlib.org/</dc:title>
     </cc:Agent>
    </dc:creator>
   </cc:Work>
  </rdf:RDF>
 </metadata>
 <defs>
  <style type="text/css">*{stroke-linejoin: round; stroke-linecap: butt}</style>
 </defs>
 <g id="figure_1">
  <g id="patch_1">
   <path d="M 0 98.64 
L 396.72 98.64 
L 396.72 0 
L 0 0 
z
" style="fill: #ffffff"/>
  </g>
  <g id="axes_1">
   <g id="patch_2">
    <path d="M 63.758571 98.64 
L 393.886286 98.64 
L 393.886286 0 
L 63.758571 0 
z
" style="fill: #eaeaf2"/>
   </g>
   <g id="matplotlib.axis_1">
    <g id="xtick_1">
     <g id="line2d_1">
      <path d="M 78.764377 98.64 
L 78.764377 0 
" clip-path="url(#p9373e9d1cc)" style="fill: none; stroke: #ffffff; stroke-opacity: 0.5; stroke-linecap: round"/>
     </g>
    </g>
    <g id="xtick_2">
     <g id="line2d_2">
      <path d="M 228.822429 98.64 
L 228.822429 0 
" clip-path="url(#p9373e9d1cc)" style="fill: none; stroke: #ffffff; stroke-opacity: 0.5; stroke-linecap: round"/>
     </g>
    </g>
    <g id="xtick_3">
     <g id="line2d_3">
      <path d="M 378.880481 98.64 
L 378.880481 0 
" clip-path="url(#p9373e9d1cc)" style="fill: none; stroke: #ffffff; stroke-opacity: 0.5; stroke-linecap: round"/>
     </g>
    </g>
    <g id="xtick_4"/>
    <g id="xtick_5"/>
    <g id="xtick_6"/>
    <g id="xtick_7"/>
    <g id="xtick_8"/>
    <g id="xtick_9"/>
    <g id="xtick_10"/>
    <g id="xtick_11"/>
    <g id="xtick_12"/>
    <g id="xtick_13"/>
    <g id="xtick_14"/>
    <g id="xtick_15"/>
    <g id="xtick_16"/>
    <g id="xtick_17"/>
    <g id="xtick_18"/>
    <g id="xtick_19"/>
    <g id="xtick_20"/>
    <g id="xtick_21"/>
   </g>
   <g id="matplotlib.axis_2">
    <g id="ytick_1">
     <g id="line2d_4">
      <path d="M 63.758571 69.663151 
L 393.886286 69.663151 
" clip-path="url(#p9373e9d1cc)" style="fill: none; stroke: #ffffff; stroke-opacity: 0.5; stroke-linecap: round"/>
     </g>
     <g id="text_1">
      <!-- $\mathdefault{10^{-5}}$ -->
      <g style="fill: #262626" transform="translate(26.178571 74.222214) scale(0.12 -0.12)">
       <defs>
        <path id="DejaVuSerif-31" d="M 909 0 
L 909 331 
L 1722 331 
L 1722 4213 
L 781 3603 
L 781 4013 
L 1919 4750 
L 2350 4750 
L 2350 331 
L 3163 331 
L 3163 0 
L 909 0 
z
" transform="scale(0.015625)"/>
        <path id="DejaVuSerif-30" d="M 2034 219 
Q 2513 219 2750 744 
Q 2988 1269 2988 2328 
Q 2988 3391 2750 3916 
Q 2513 4441 2034 4441 
Q 1556 4441 1318 3916 
Q 1081 3391 1081 2328 
Q 1081 1269 1318 744 
Q 1556 219 2034 219 
z
M 2034 -91 
Q 1275 -91 848 546 
Q 422 1184 422 2328 
Q 422 3475 848 4112 
Q 1275 4750 2034 4750 
Q 2797 4750 3222 4112 
Q 3647 3475 3647 2328 
Q 3647 1184 3222 546 
Q 2797 -91 2034 -91 
z
" transform="scale(0.015625)"/>
        <path id="DejaVuSerif-2212" d="M 678 2259 
L 4684 2259 
L 4684 1753 
L 678 1753 
L 678 2259 
z
" transform="scale(0.015625)"/>
        <path id="DejaVuSerif-35" d="M 3219 4666 
L 3219 4153 
L 1081 4153 
L 1081 2816 
Q 1244 2928 1461 2984 
Q 1678 3041 1947 3041 
Q 2703 3041 3140 2622 
Q 3578 2203 3578 1478 
Q 3578 738 3136 323 
Q 2694 -91 1894 -91 
Q 1572 -91 1234 -12 
Q 897 66 544 225 
L 544 1131 
L 897 1131 
Q 925 688 1179 453 
Q 1434 219 1894 219 
Q 2388 219 2653 544 
Q 2919 869 2919 1478 
Q 2919 2084 2655 2407 
Q 2391 2731 1894 2731 
Q 1613 2731 1398 2631 
Q 1184 2531 1019 2322 
L 750 2322 
L 750 4666 
L 3219 4666 
z
" transform="scale(0.015625)"/>
       </defs>
       <use xlink:href="#DejaVuSerif-31" transform="translate(0 0.63125)"/>
       <use xlink:href="#DejaVuSerif-30" transform="translate(63.623047 0.63125)"/>
       <use xlink:href="#DejaVuSerif-2212" transform="translate(128.154453 36.965625) scale(0.7)"/>
       <use xlink:href="#DejaVuSerif-35" transform="translate(186.806797 36.965625) scale(0.7)"/>
      </g>
     </g>
    </g>
    <g id="ytick_2">
     <g id="line2d_5">
      <path d="M 63.758571 23.946605 
L 393.886286 23.946605 
" clip-path="url(#p9373e9d1cc)" style="fill: none; stroke: #ffffff; stroke-opacity: 0.5; stroke-linecap: round"/>
     </g>
     <g id="text_2">
      <!-- $\mathdefault{10^{-4}}$ -->
      <g style="fill: #262626" transform="translate(26.178571 28.505668) scale(0.12 -0.12)">
       <defs>
        <path id="DejaVuSerif-34" d="M 2234 1581 
L 2234 4063 
L 641 1581 
L 2234 1581 
z
M 3609 0 
L 1484 0 
L 1484 331 
L 2234 331 
L 2234 1247 
L 197 1247 
L 197 1588 
L 2241 4750 
L 2859 4750 
L 2859 1581 
L 3750 1581 
L 3750 1247 
L 2859 1247 
L 2859 331 
L 3609 331 
L 3609 0 
z
" transform="scale(0.015625)"/>
       </defs>
       <use xlink:href="#DejaVuSerif-31" transform="translate(0 0.7125)"/>
       <use xlink:href="#DejaVuSerif-30" transform="translate(63.623047 0.7125)"/>
       <use xlink:href="#DejaVuSerif-2212" transform="translate(128.154453 37.046875) scale(0.7)"/>
       <use xlink:href="#DejaVuSerif-34" transform="translate(186.806797 37.046875) scale(0.7)"/>
      </g>
     </g>
    </g>
    <g id="ytick_3"/>
    <g id="ytick_4"/>
    <g id="ytick_5"/>
    <g id="ytick_6"/>
    <g id="ytick_7"/>
    <g id="ytick_8"/>
    <g id="ytick_9"/>
    <g id="ytick_10"/>
    <g id="ytick_11"/>
    <g id="ytick_12"/>
    <g id="ytick_13"/>
    <g id="ytick_14"/>
    <g id="ytick_15"/>
    <g id="ytick_16"/>
    <g id="ytick_17"/>
    <g id="ytick_18"/>
    <g id="ytick_19"/>
    <g id="text_3">
     <!-- Linear -->
     <g style="fill: #262626" transform="translate(18.851071 75.6725) rotate(-90) scale(0.16 -0.16)">
      <defs>
       <path id="DejaVuSerif-4c" d="M 353 0 
L 353 331 
L 947 331 
L 947 4331 
L 353 4331 
L 353 4666 
L 2175 4666 
L 2175 4331 
L 1581 4331 
L 1581 384 
L 3713 384 
L 3713 1166 
L 4097 1166 
L 4097 0 
L 353 0 
z
" transform="scale(0.015625)"/>
       <path id="DejaVuSerif-69" d="M 622 4353 
Q 622 4497 726 4603 
Q 831 4709 978 4709 
Q 1122 4709 1226 4603 
Q 1331 4497 1331 4353 
Q 1331 4206 1228 4103 
Q 1125 4000 978 4000 
Q 831 4000 726 4103 
Q 622 4206 622 4353 
z
M 1356 331 
L 1900 331 
L 1900 0 
L 231 0 
L 231 331 
L 781 331 
L 781 2988 
L 231 2988 
L 231 3322 
L 1356 3322 
L 1356 331 
z
" transform="scale(0.015625)"/>
       <path id="DejaVuSerif-6e" d="M 263 0 
L 263 331 
L 781 331 
L 781 2988 
L 231 2988 
L 231 3322 
L 1356 3322 
L 1356 2731 
Q 1516 3069 1770 3241 
Q 2025 3413 2363 3413 
Q 2913 3413 3172 3097 
Q 3431 2781 3431 2113 
L 3431 331 
L 3944 331 
L 3944 0 
L 2356 0 
L 2356 331 
L 2853 331 
L 2853 1931 
Q 2853 2541 2703 2767 
Q 2553 2994 2175 2994 
Q 1775 2994 1565 2701 
Q 1356 2409 1356 1850 
L 1356 331 
L 1856 331 
L 1856 0 
L 263 0 
z
" transform="scale(0.015625)"/>
       <path id="DejaVuSerif-65" d="M 3469 1600 
L 991 1600 
L 991 1575 
Q 991 903 1244 561 
Q 1497 219 1991 219 
Q 2369 219 2611 417 
Q 2853 616 2950 1006 
L 3413 1006 
Q 3275 459 2904 184 
Q 2534 -91 1931 -91 
Q 1203 -91 761 389 
Q 319 869 319 1663 
Q 319 2450 753 2931 
Q 1188 3413 1894 3413 
Q 2647 3413 3050 2948 
Q 3453 2484 3469 1600 
z
M 2791 1931 
Q 2772 2513 2545 2808 
Q 2319 3103 1894 3103 
Q 1497 3103 1269 2806 
Q 1041 2509 991 1931 
L 2791 1931 
z
" transform="scale(0.015625)"/>
       <path id="DejaVuSerif-61" d="M 2547 1044 
L 2547 1747 
L 1806 1747 
Q 1378 1747 1168 1562 
Q 959 1378 959 997 
Q 959 650 1171 447 
Q 1384 244 1747 244 
Q 2106 244 2326 466 
Q 2547 688 2547 1044 
z
M 3122 2075 
L 3122 331 
L 3634 331 
L 3634 0 
L 2547 0 
L 2547 359 
Q 2356 128 2106 18 
Q 1856 -91 1522 -91 
Q 969 -91 644 203 
Q 319 497 319 997 
Q 319 1513 691 1797 
Q 1063 2081 1741 2081 
L 2547 2081 
L 2547 2309 
Q 2547 2688 2317 2895 
Q 2088 3103 1672 3103 
Q 1328 3103 1125 2947 
Q 922 2791 872 2484 
L 575 2484 
L 575 3156 
Q 875 3284 1158 3348 
Q 1441 3413 1709 3413 
Q 2400 3413 2761 3070 
Q 3122 2728 3122 2075 
z
" transform="scale(0.015625)"/>
       <path id="DejaVuSerif-72" d="M 3059 3328 
L 3059 2497 
L 2728 2497 
Q 2713 2744 2591 2866 
Q 2469 2988 2234 2988 
Q 1809 2988 1582 2694 
Q 1356 2400 1356 1850 
L 1356 331 
L 2022 331 
L 2022 0 
L 263 0 
L 263 331 
L 781 331 
L 781 2994 
L 231 2994 
L 231 3322 
L 1356 3322 
L 1356 2731 
Q 1525 3078 1790 3245 
Q 2056 3413 2438 3413 
Q 2578 3413 2733 3391 
Q 2888 3369 3059 3328 
z
" transform="scale(0.015625)"/>
      </defs>
      <use xlink:href="#DejaVuSerif-4c"/>
      <use xlink:href="#DejaVuSerif-69" x="66.40625"/>
      <use xlink:href="#DejaVuSerif-6e" x="98.388672"/>
      <use xlink:href="#DejaVuSerif-65" x="162.792969"/>
      <use xlink:href="#DejaVuSerif-61" x="221.972656"/>
      <use xlink:href="#DejaVuSerif-72" x="281.591797"/>
     </g>
    </g>
   </g>
   <g id="line2d_6">
    <path d="M 78.764377 33.290778 
L 123.936351 51.42373 
L 150.360263 49.244704 
L 169.108326 42.083172 
L 183.650454 65.067009 
L 195.532237 46.057437 
L 205.578142 36.131733 
L 214.280301 43.111721 
L 221.956149 33.415839 
L 221.966137 99.64 
M 273.988955 99.64 
L 273.994403 94.156364 
L 300.418315 93.678416 
L 319.166378 82.721573 
L 333.708506 80.606425 
L 345.590289 91.458475 
L 355.636194 91.732432 
L 364.338353 84.667889 
L 372.014201 84.938792 
L 378.880481 88.39092 
" clip-path="url(#p9373e9d1cc)" style="fill: none; stroke: #9bd93c; stroke-width: 2; stroke-linecap: round"/>
    <defs>
     <path id="m5c21091178" d="M -3 3 
L 3 -3 
M -3 -3 
L 3 3 
" style="stroke: #9bd93c"/>
    </defs>
    <g clip-path="url(#p9373e9d1cc)">
     <use xlink:href="#m5c21091178" x="78.764377" y="33.290778" style="fill: #9bd93c; stroke: #9bd93c"/>
     <use xlink:href="#m5c21091178" x="123.936351" y="51.42373" style="fill: #9bd93c; stroke: #9bd93c"/>
     <use xlink:href="#m5c21091178" x="150.360263" y="49.244704" style="fill: #9bd93c; stroke: #9bd93c"/>
     <use xlink:href="#m5c21091178" x="169.108326" y="42.083172" style="fill: #9bd93c; stroke: #9bd93c"/>
     <use xlink:href="#m5c21091178" x="183.650454" y="65.067009" style="fill: #9bd93c; stroke: #9bd93c"/>
     <use xlink:href="#m5c21091178" x="195.532237" y="46.057437" style="fill: #9bd93c; stroke: #9bd93c"/>
     <use xlink:href="#m5c21091178" x="205.578142" y="36.131733" style="fill: #9bd93c; stroke: #9bd93c"/>
     <use xlink:href="#m5c21091178" x="214.280301" y="43.111721" style="fill: #9bd93c; stroke: #9bd93c"/>
     <use xlink:href="#m5c21091178" x="221.956149" y="33.415839" style="fill: #9bd93c; stroke: #9bd93c"/>
     <use xlink:href="#m5c21091178" x="223.022445" y="7103.08" style="fill: #9bd93c; stroke: #9bd93c"/>
     <use xlink:href="#m5c21091178" x="267.030418" y="7103.08" style="fill: #9bd93c; stroke: #9bd93c"/>
     <use xlink:href="#m5c21091178" x="273.994403" y="94.156364" style="fill: #9bd93c; stroke: #9bd93c"/>
     <use xlink:href="#m5c21091178" x="300.418315" y="93.678416" style="fill: #9bd93c; stroke: #9bd93c"/>
     <use xlink:href="#m5c21091178" x="319.166378" y="82.721573" style="fill: #9bd93c; stroke: #9bd93c"/>
     <use xlink:href="#m5c21091178" x="333.708506" y="80.606425" style="fill: #9bd93c; stroke: #9bd93c"/>
     <use xlink:href="#m5c21091178" x="345.590289" y="91.458475" style="fill: #9bd93c; stroke: #9bd93c"/>
     <use xlink:href="#m5c21091178" x="355.636194" y="91.732432" style="fill: #9bd93c; stroke: #9bd93c"/>
     <use xlink:href="#m5c21091178" x="364.338353" y="84.667889" style="fill: #9bd93c; stroke: #9bd93c"/>
     <use xlink:href="#m5c21091178" x="372.014201" y="84.938792" style="fill: #9bd93c; stroke: #9bd93c"/>
     <use xlink:href="#m5c21091178" x="378.880481" y="88.39092" style="fill: #9bd93c; stroke: #9bd93c"/>
    </g>
   </g>
   <g id="line2d_7">
    <path d="M 78.764377 4.483636 
L 123.936351 22.072285 
L 150.360263 14.038091 
L 169.108326 16.385175 
L 183.650454 40.569763 
L 195.532237 27.429446 
L 205.578142 20.756666 
L 214.280301 39.011258 
L 221.956149 30.004309 
L 221.966651 99.64 
M 273.941002 99.64 
L 273.994403 45.836803 
L 300.418315 28.824363 
L 319.166378 20.550408 
L 333.708506 35.090787 
L 345.590289 27.252221 
L 355.636194 15.831882 
L 364.338353 13.765048 
L 372.014201 14.90667 
L 378.880481 27.074553 
" clip-path="url(#p9373e9d1cc)" style="fill: none; stroke: #375a8c; stroke-width: 2; stroke-linecap: round"/>
    <defs>
     <path id="meaec8878e4" d="M 0 3 
C 0.795609 3 1.55874 2.683901 2.12132 2.12132 
C 2.683901 1.55874 3 0.795609 3 0 
C 3 -0.795609 2.683901 -1.55874 2.12132 -2.12132 
C 1.55874 -2.683901 0.795609 -3 0 -3 
C -0.795609 -3 -1.55874 -2.683901 -2.12132 -2.12132 
C -2.683901 -1.55874 -3 -0.795609 -3 0 
C -3 0.795609 -2.683901 1.55874 -2.12132 2.12132 
C -1.55874 2.683901 -0.795609 3 0 3 
z
" style="stroke: #375a8c"/>
    </defs>
    <g clip-path="url(#p9373e9d1cc)">
     <use xlink:href="#meaec8878e4" x="78.764377" y="4.483636" style="fill: #375a8c; stroke: #375a8c"/>
     <use xlink:href="#meaec8878e4" x="123.936351" y="22.072285" style="fill: #375a8c; stroke: #375a8c"/>
     <use xlink:href="#meaec8878e4" x="150.360263" y="14.038091" style="fill: #375a8c; stroke: #375a8c"/>
     <use xlink:href="#meaec8878e4" x="169.108326" y="16.385175" style="fill: #375a8c; stroke: #375a8c"/>
     <use xlink:href="#meaec8878e4" x="183.650454" y="40.569763" style="fill: #375a8c; stroke: #375a8c"/>
     <use xlink:href="#meaec8878e4" x="195.532237" y="27.429446" style="fill: #375a8c; stroke: #375a8c"/>
     <use xlink:href="#meaec8878e4" x="205.578142" y="20.756666" style="fill: #375a8c; stroke: #375a8c"/>
     <use xlink:href="#meaec8878e4" x="214.280301" y="39.011258" style="fill: #375a8c; stroke: #375a8c"/>
     <use xlink:href="#meaec8878e4" x="221.956149" y="30.004309" style="fill: #375a8c; stroke: #375a8c"/>
     <use xlink:href="#meaec8878e4" x="223.022879" y="7103.08" style="fill: #375a8c; stroke: #375a8c"/>
     <use xlink:href="#meaec8878e4" x="266.989853" y="7103.08" style="fill: #375a8c; stroke: #375a8c"/>
     <use xlink:href="#meaec8878e4" x="273.994403" y="45.836803" style="fill: #375a8c; stroke: #375a8c"/>
     <use xlink:href="#meaec8878e4" x="300.418315" y="28.824363" style="fill: #375a8c; stroke: #375a8c"/>
     <use xlink:href="#meaec8878e4" x="319.166378" y="20.550408" style="fill: #375a8c; stroke: #375a8c"/>
     <use xlink:href="#meaec8878e4" x="333.708506" y="35.090787" style="fill: #375a8c; stroke: #375a8c"/>
     <use xlink:href="#meaec8878e4" x="345.590289" y="27.252221" style="fill: #375a8c; stroke: #375a8c"/>
     <use xlink:href="#meaec8878e4" x="355.636194" y="15.831882" style="fill: #375a8c; stroke: #375a8c"/>
     <use xlink:href="#meaec8878e4" x="364.338353" y="13.765048" style="fill: #375a8c; stroke: #375a8c"/>
     <use xlink:href="#meaec8878e4" x="372.014201" y="14.90667" style="fill: #375a8c; stroke: #375a8c"/>
     <use xlink:href="#meaec8878e4" x="378.880481" y="27.074553" style="fill: #375a8c; stroke: #375a8c"/>
    </g>
   </g>
   <g id="patch_3">
    <path d="M 63.758571 98.64 
L 63.758571 0 
" style="fill: none; stroke: #ffffff; stroke-width: 1.25; stroke-linejoin: miter; stroke-linecap: square"/>
   </g>
   <g id="patch_4">
    <path d="M 393.886286 98.64 
L 393.886286 0 
" style="fill: none; stroke: #ffffff; stroke-width: 1.25; stroke-linejoin: miter; stroke-linecap: square"/>
   </g>
   <g id="patch_5">
    <path d="M 63.758571 98.64 
L 393.886286 98.64 
" style="fill: none; stroke: #ffffff; stroke-width: 1.25; stroke-linejoin: miter; stroke-linecap: square"/>
   </g>
   <g id="patch_6">
    <path d="M 63.758571 0 
L 393.886286 0 
" style="fill: none; stroke: #ffffff; stroke-width: 1.25; stroke-linejoin: miter; stroke-linecap: square"/>
   </g>
  </g>
 </g>
 <defs>
  <clipPath id="p9373e9d1cc">
   <rect x="63.758571" y="0" width="330.127714" height="98.64"/>
  </clipPath>
 </defs>
</svg>
